<svg width="52" height="52" viewBox="0 0 52 52" fill="none" xmlns="http://www.w3.org/2000/svg">
<path fill-rule="evenodd" clip-rule="evenodd" d="M5.77674 26.0066C5.77578 22.7778 6.548 19.5956 8.0288 16.7264C9.50961 13.8571 11.656 11.3841 14.2883 9.5143C16.9206 7.64447 19.9625 6.43216 23.1593 5.97876C26.3562 5.52536 29.6152 5.84406 32.6636 6.9082C33.3873 7.16027 34.1814 7.11455 34.8714 6.78109C35.5613 6.44763 36.0905 5.85375 36.3426 5.13009C36.5947 4.40643 36.549 3.61228 36.2155 2.92233C35.882 2.23238 35.2882 1.70316 34.5645 1.45109C29.2413 -0.406055 23.4586 -0.482583 18.0881 1.23304C12.7176 2.94866 8.05028 6.36347 4.78958 10.9628C1.52889 15.5621 -0.148471 21.0966 0.0103197 26.7323C0.16911 32.3679 2.15544 37.7993 5.66994 42.2077C9.18444 46.6161 14.0366 49.7626 19.4952 51.1732C24.9538 52.5837 30.723 52.1816 35.9332 50.0277C41.1434 47.8738 45.5123 44.0846 48.3814 39.2314C51.2506 34.3782 52.4644 28.7238 51.84 23.1206C51.7983 22.7435 51.6827 22.3784 51.4998 22.0459C51.317 21.7135 51.0704 21.4204 50.7743 21.1832C50.4781 20.9461 50.1382 20.7696 49.7738 20.6638C49.4094 20.5581 49.0278 20.5251 48.6507 20.5669C48.2736 20.6086 47.9084 20.7242 47.576 20.9071C47.2436 21.0899 46.9504 21.3365 46.7133 21.6326C46.4761 21.9288 46.2997 22.2687 46.1939 22.6331C46.0882 22.9975 46.0552 23.3791 46.0969 23.7562C46.4012 26.4888 46.1451 29.2547 45.3441 31.8849C44.5432 34.5152 43.2143 36.9545 41.4387 39.0537C39.6631 41.1529 37.4781 42.868 35.0171 44.0942C32.5562 45.3203 29.8711 46.0317 27.1259 46.185C24.3807 46.3382 21.6331 45.93 19.051 44.9853C16.4689 44.0407 14.1065 42.5794 12.1084 40.6907C10.1102 38.8021 8.51809 36.5259 7.42944 34.0011C6.34079 31.4764 5.77844 28.7561 5.77674 26.0066ZM48.3878 10.5858C48.895 10.0111 49.1532 9.25853 49.1055 8.49355C49.0578 7.72857 48.7082 7.01385 48.1336 6.50664C47.559 5.99943 46.8064 5.74127 46.0414 5.78894C45.2764 5.83662 44.5617 6.18623 44.0545 6.76087L25.4645 27.792L16.2692 20.3011C15.9752 20.0613 15.6368 19.8818 15.2734 19.7728C14.91 19.6638 14.5287 19.6275 14.1513 19.6658C13.389 19.7433 12.6887 20.1204 12.2045 20.7142C11.9647 21.0082 11.7852 21.3466 11.6762 21.71C11.5672 22.0733 11.5309 22.4546 11.5692 22.8321C11.6467 23.5944 12.0238 24.2946 12.6176 24.7789L23.9681 34.0233C24.5463 34.4938 25.2841 34.7225 26.027 34.6617C26.77 34.6008 27.4607 34.2551 27.9547 33.6969L48.3878 10.5858Z" fill="currentColor"/>
</svg>
