<svg width="49" height="57" viewBox="0 0 50 56" fill="none" xmlns="http://www.w3.org/2000/svg">
<path d="M43.5874 4.75159C47.4162 8.1645 49.7145 12.9798 49.9785 18.1416C50.2425 23.3034 48.4505 28.3903 44.9955 32.287L27.15 52.3433C24.7666 55.0218 21.4329 56.6582 17.8823 56.8924C14.3316 57.1267 10.8547 55.9395 8.21661 53.5922C5.5785 51.2449 3.9952 47.9296 3.81504 44.3758C3.63487 40.822 4.87258 37.3206 7.2559 34.6421L23.9926 15.832C24.6704 14.9958 25.5083 14.3034 26.4558 13.7969C27.4033 13.2903 28.4407 12.98 29.5051 12.8848C30.5696 12.7896 31.6389 12.9114 32.6486 13.2429C33.6583 13.5743 34.5872 14.1086 35.3792 14.8133C36.1712 15.518 36.8098 16.3785 37.2565 17.3428C37.7031 18.3071 37.9484 19.3551 37.9776 20.4233C38.0067 21.4916 37.8191 22.558 37.4262 23.558C37.0332 24.558 36.443 25.4707 35.6912 26.2411L20.4445 43.3766C20.0616 43.8069 19.526 44.0699 18.9555 44.1075C18.385 44.1451 17.8264 43.9544 17.4026 43.5772C16.9787 43.2001 16.7243 42.6675 16.6954 42.0965C16.6664 41.5255 16.8653 40.9629 17.2482 40.5326L32.4949 23.3971C32.8489 23.0501 33.129 22.635 33.3177 22.1775C33.5064 21.7199 33.5997 21.2299 33.5918 20.7377C33.584 20.2455 33.4751 19.7617 33.2719 19.3164C33.0688 18.8711 32.7757 18.4738 32.4109 18.1493C32.0462 17.8247 31.6175 17.5798 31.1516 17.4298C30.6858 17.2798 30.1926 17.2279 29.7028 17.2773C29.213 17.3267 28.7371 17.4764 28.3047 17.717C27.8722 17.9576 27.4924 18.284 27.189 18.676L10.4522 37.4861C8.83478 39.3039 7.99478 41.6802 8.11706 44.092C8.23933 46.5039 9.31386 48.7538 11.1042 50.3469C12.8946 51.9399 15.2542 52.7456 17.664 52.5866C20.0737 52.4276 22.3361 51.3171 23.9536 49.4992L41.7992 29.4429C44.4883 26.407 45.8826 22.4452 45.6765 18.4254C45.4704 14.4056 43.6808 10.6556 40.6997 7.99694C34.8184 2.76394 26.5331 3.81149 20.5499 10.5359L4.62169 28.4373C4.23877 28.8676 3.70315 29.1305 3.13267 29.1682C2.56218 29.2058 2.00357 29.0151 1.5797 28.6379C1.15584 28.2608 0.901455 27.7281 0.872508 27.1571C0.84356 26.5861 1.04242 26.0236 1.42535 25.5932L17.3535 7.69184C24.9191 -0.810995 35.9161 -2.07407 43.5874 4.75159Z" fill="currentColor"/>
</svg>
