<svg width="60" height="12" viewBox="0 0 60 12" fill="none" xmlns="http://www.w3.org/2000/svg">
<path d="M6.00004 12C9.31377 12 12.0001 9.31366 12.0001 5.99993C12.0001 2.6862 9.31377 -0.000112534 6.00004 -0.000112534C2.68631 -0.000112534 0 2.6862 0 5.99993C0 9.31366 2.68631 12 6.00004 12Z" fill="currentColor"/>
<path d="M29.9999 12C33.3137 12 36 9.31366 36 5.99993C36 2.6862 33.3137 -0.000112534 29.9999 -0.000112534C26.6862 -0.000112534 23.9999 2.6862 23.9999 5.99993C23.9999 9.31366 26.6862 12 29.9999 12Z" fill="currentColor"/>
<path d="M53.9999 12C57.3137 12 60 9.31366 60 5.99993C60 2.6862 57.3137 -0.000112534 53.9999 -0.000112534C50.6862 -0.000112534 47.9999 2.6862 47.9999 5.99993C47.9999 9.31366 50.6862 12 53.9999 12Z" fill="currentColor"/>
</svg>
