<svg width="74" height="59" viewBox="0 0 74 59" fill="none" xmlns="http://www.w3.org/2000/svg">
<path d="M73.0696 20.4947C72.6409 19.914 72.0827 19.4428 71.4401 19.1192C70.7974 18.7956 70.0882 18.6285 69.3697 18.6316H64.7479V13.9737C64.7459 12.3272 64.0956 10.7487 62.9396 9.58446C61.7836 8.4202 60.2163 7.76522 58.5815 7.76317H35.0687C34.61 7.76377 34.157 7.66089 33.743 7.46207C33.329 7.26324 32.9644 6.97353 32.6761 6.61422L29.6546 2.86927C28.9338 1.97167 28.0225 1.24805 26.9877 0.751541C25.9529 0.25503 24.8208 -0.00176559 23.6746 9.13655e-06H6.16647C4.53165 0.00206342 2.96437 0.657044 1.80837 1.8213C0.652374 2.98555 0.00203971 4.56403 0 6.21053L0 52.1234C0.00204015 53.9466 0.722053 55.6944 2.00208 56.9836C3.2821 58.2728 5.0176 58.9979 6.82782 59H58.7233C60.1999 58.9946 61.6355 58.5098 62.8169 57.6176C63.9983 56.7254 64.8625 55.4732 65.2813 54.0471L73.8111 24.5937C74.0152 23.8998 74.0546 23.1674 73.926 22.4554C73.7975 21.7434 73.5031 21.0718 73.0696 20.4947ZM6.82628 55.8947C5.83367 55.8935 4.88209 55.4957 4.18036 54.7887C3.47862 54.0816 3.08405 53.1231 3.08324 52.1234V6.21053C3.08405 5.38722 3.40915 4.59786 3.9872 4.01569C4.56524 3.43352 5.349 3.10609 6.16647 3.10527H23.6715C24.36 3.10349 25.0401 3.25725 25.6617 3.55525C26.2834 3.85324 26.8307 4.28787 27.2635 4.82714L30.282 8.57364C30.8591 9.29182 31.5886 9.87071 32.4169 10.2678C33.2452 10.6649 34.1513 10.8701 35.0687 10.8684H58.5815C59.3989 10.8692 60.1827 11.1967 60.7607 11.7788C61.3388 12.361 61.6639 13.1504 61.6647 13.9737V18.6316H25.5477C24.0716 18.6376 22.6367 19.1227 21.4559 20.0149C20.2752 20.9071 19.4114 22.1589 18.9927 23.5845L10.4213 53.1792C10.1917 53.9607 9.71814 54.6469 9.07086 55.136C8.42358 55.6251 7.6355 55.8912 6.82628 55.8947ZM70.8497 23.7242L62.3214 53.1776C62.0915 53.9603 61.6171 54.6474 60.9686 55.1369C60.3201 55.6264 59.5322 55.8922 58.7218 55.8947H12.5334C12.9071 55.3259 13.1934 54.7035 13.3828 54.0487L21.9542 24.454C22.1838 23.6723 22.6573 22.9859 23.3045 22.4965C23.9518 22.0071 24.7383 21.7407 25.5477 21.7368H69.3728C69.6121 21.7368 69.8482 21.793 70.0622 21.9008C70.2763 22.0086 70.4625 22.1651 70.6061 22.3579C70.7497 22.5507 70.8467 22.7746 70.8895 23.0117C70.9324 23.2489 70.9198 23.4928 70.8527 23.7242H70.8497Z" fill="currentColor"/>
</svg>
