<svg width="60" height="60" viewBox="0 0 60 60" fill="none" xmlns="http://www.w3.org/2000/svg">
<path d="M51.1305 0H8.86922C3.97863 0 0 3.97875 0 8.86934V51.1308C0 56.0213 3.97863 60 8.86922 60H51.1307C56.0213 60 60 56.0213 60 51.1307V8.86934C60 3.97875 56.0212 0 51.1305 0ZM8.86922 3.75H51.1307C53.9534 3.75 56.25 6.04652 56.25 8.86934V33.6561L48.6928 26.7755C47.5968 25.7775 46.2437 25.2116 44.8825 25.1818C43.3956 25.148 41.996 25.7554 40.9473 26.8879L26.6416 42.3353C25.8357 43.2056 25.5272 43.3264 25.4725 43.3419C25.4101 43.3364 25.1242 43.2749 24.2621 42.6745L15.725 35.898C13.9917 34.3835 11.2547 34.3603 9.32859 35.8536L3.75 40.1789V8.86934C3.75 6.04652 6.04652 3.75 8.86922 3.75ZM51.1305 56.25H8.86922C6.04652 56.25 3.75 53.9535 3.75 51.1307V44.9239L11.6264 38.8171C12.1236 38.4315 12.8896 38.3903 13.2654 38.7286C13.2942 38.7546 13.3239 38.7798 13.3543 38.8039L21.9754 45.6471C22.0043 45.67 22.0338 45.6921 22.0641 45.7132C23.241 46.5391 24.2863 47.0931 25.465 47.0931C25.5897 47.093 25.7144 47.0869 25.8386 47.0747C27.3131 46.93 28.4184 45.9357 29.3931 44.8832L43.6987 29.4356C44.72 28.3324 45.9349 29.3359 46.1681 29.5481L56.25 38.7275V51.1308C56.25 53.9535 53.9534 56.25 51.1305 56.25ZM20.6572 24.2575C24.7846 24.2575 28.1423 20.8997 28.1423 16.7723C28.1423 12.645 24.7846 9.28723 20.6572 9.28723C16.5298 9.28723 13.1719 12.645 13.1719 16.7723C13.1719 20.8997 16.5299 24.2575 20.6572 24.2575ZM20.6572 13.0372C22.7168 13.0372 24.3923 14.7128 24.3923 16.7723C24.3923 18.8319 22.7168 20.5075 20.6572 20.5075C18.5975 20.5075 16.9219 18.8319 16.9219 16.7723C16.9219 14.7128 18.5975 13.0372 20.6572 13.0372Z" fill="currentColor"/>
</svg>
