<svg width="60" height="60" viewBox="0 0 60 60" fill="none" xmlns="http://www.w3.org/2000/svg">
<g clip-path="url(#clip0_3_5)">
<path d="M29.9998 41.5375C33.1733 41.5375 35.8891 40.4076 38.1486 38.149C40.4078 35.8904 41.5375 33.1732 41.5375 29.9999V11.5388C41.5375 8.36553 40.4086 5.64947 38.1486 3.38971C35.8891 1.13045 33.1733 -3.8147e-06 29.9998 -3.8147e-06C26.8267 -3.8147e-06 24.1105 1.13045 21.8509 3.38971C19.5911 5.64909 18.4614 8.36553 18.4614 11.5388V29.9999C18.4614 33.1731 19.5916 35.8904 21.8509 38.149C24.1101 40.4076 26.8267 41.5375 29.9998 41.5375Z" fill="currentColor"/>
<path d="M50.0832 23.7621C49.6278 23.3053 49.0857 23.0768 48.4607 23.0768C47.8363 23.0768 47.2955 23.3053 46.8382 23.7621C46.3819 24.2187 46.1536 24.7595 46.1536 25.3843V29.9999C46.1536 34.4472 44.5727 38.2511 41.4115 41.412C38.2514 44.5732 34.4471 46.1537 29.9997 46.1537C25.5524 46.1537 21.7484 44.5732 18.5872 41.412C15.4263 38.2519 13.846 34.4474 13.846 29.9999V25.3843C13.846 24.7595 13.6176 24.2187 13.161 23.7621C12.7042 23.3053 12.1639 23.0768 11.5385 23.0768C10.9131 23.0768 10.3722 23.3053 9.91566 23.7621C9.45873 24.2187 9.23039 24.7595 9.23039 25.3843V29.9999C9.23039 35.3125 11.0035 39.934 14.5489 43.8639C18.0943 47.7939 22.4753 50.0473 27.6919 50.6239V55.384H18.4613C17.8363 55.384 17.2955 55.6127 16.8388 56.0695C16.382 56.5259 16.1535 57.067 16.1535 57.692C16.1535 58.316 16.382 58.8581 16.8388 59.3145C17.2955 59.7709 17.8363 60 18.4613 60H41.5375C42.1623 60 42.7039 59.771 43.1599 59.3145C43.6172 58.8582 43.8458 58.3161 43.8458 57.692C43.8458 57.0671 43.6172 56.5261 43.1599 56.0695C42.704 55.6127 42.1625 55.384 41.5375 55.384H32.3079V50.6239C37.5237 50.0473 41.9043 47.7939 45.4501 43.8639C48.9959 39.934 50.7696 35.3125 50.7696 29.9999V25.3843C50.7696 24.7597 50.5406 24.2192 50.0832 23.7621Z" fill="currentColor"/>
</g>
<defs>
<clipPath id="clip0_3_5">
<rect width="60" height="60"/>
</clipPath>
</defs>
</svg>
