<svg width="42" height="60" viewBox="0 0 42 60" fill="none" xmlns="http://www.w3.org/2000/svg">
<path d="M30.5375 29.9999C30.5375 32.6388 29.6213 34.8483 27.7347 36.7345L27.7346 36.7346C25.8471 38.6214 23.6386 39.5375 20.9998 39.5375C18.3612 39.5375 16.1521 38.6212 14.2649 36.7346C12.378 34.8482 11.4614 32.6385 11.4614 29.9999V11.5388C11.4614 8.90009 12.3775 6.69123 14.265 4.80404C16.1528 2.91654 18.3617 2 20.9998 2C23.6383 2 25.8468 2.91652 27.7345 4.804C29.6221 6.69138 30.5375 8.89981 30.5375 11.5388V29.9999Z" stroke="currentColor" stroke-width="5"/>
<path d="M41.0832 23.7621C40.6278 23.3053 40.0858 23.0768 39.4607 23.0768C38.8363 23.0768 38.2955 23.3053 37.8382 23.7621C37.3819 24.2187 37.1536 24.7595 37.1536 25.3843V29.9999C37.1536 34.4472 35.5727 38.2511 32.4116 41.412C29.2514 44.5732 25.4471 46.1537 20.9997 46.1537C16.5524 46.1537 12.7485 44.5732 9.58722 41.412C6.42635 38.2519 4.84605 34.4474 4.84605 29.9999V25.3843C4.84605 24.7595 4.61758 24.2187 4.16103 23.7621C3.70423 23.3053 3.16395 23.0768 2.53854 23.0768C1.91314 23.0768 1.37222 23.3053 0.915675 23.7621C0.458746 24.2187 0.230408 24.7595 0.230408 25.3843V29.9999C0.230408 35.3125 2.00356 39.934 5.54887 43.8639C9.09429 47.7939 13.4753 50.0473 18.6919 50.6239V55.384H9.4613C8.83628 55.384 8.29549 55.6127 7.83881 56.0695C7.38201 56.5259 7.15355 57.067 7.15355 57.692C7.15355 58.316 7.38201 58.8581 7.83881 59.3145C8.29549 59.7709 8.83628 60 9.4613 60H32.5375C33.1624 60 33.7039 59.771 34.16 59.3145C34.6173 58.8582 34.8459 58.3161 34.8459 57.692C34.8459 57.0671 34.6173 56.5261 34.16 56.0695C33.704 55.6127 33.1625 55.384 32.5375 55.384H23.308V50.6239C28.5237 50.0473 32.9043 47.7939 36.4502 43.8639C39.996 39.934 41.7696 35.3125 41.7696 29.9999V25.3843C41.7696 24.7597 41.5407 24.2192 41.0832 23.7621Z" fill="currentColor"/>
</svg>
