<svg width="60" height="58" viewBox="0 0 60 58" fill="none" xmlns="http://www.w3.org/2000/svg">
<path d="M34.868 1.19712C34.172 0.865123 33.352 0.953123 32.752 1.43712L13.296 17.0011H4C1.796 17.0011 -1.43051e-06 18.7971 -1.43051e-06 21.0011V37.0011C-1.43051e-06 39.2051 1.796 41.0011 4 41.0011H13.296L32.748 56.5651C33.1044 56.8472 33.5455 57.0008 34 57.0011C34.296 57.0011 34.592 56.9371 34.868 56.8051C35.207 56.641 35.4929 56.3848 35.6931 56.0657C35.8933 55.7467 35.9997 55.3778 36 55.0011V3.00112C35.9997 2.62448 35.8933 2.25555 35.6931 1.93651C35.4929 1.61748 35.207 1.36125 34.868 1.19712ZM12 37.0011H4V21.0011H12V37.0011ZM32 50.8371L16 38.0371V19.9651L32 7.16512V50.8371ZM46.128 14.8571C45.34 14.0771 44.076 14.0891 43.3 14.8731C42.524 15.6611 42.532 16.9251 43.316 17.7011C46.336 20.6891 48 24.7011 48 29.0011C48 33.3011 46.336 37.3131 43.316 40.3011C42.528 41.0771 42.52 42.3411 43.3 43.1291C43.4857 43.317 43.7068 43.466 43.9506 43.5677C44.1943 43.6693 44.4559 43.7215 44.72 43.7211C45.228 43.7211 45.736 43.5291 46.128 43.1411C49.916 39.4011 52 34.3811 52 29.0011C52 23.6211 49.916 18.6011 46.128 14.8571Z" fill="currentColor"/>
<path d="M51.768 9.22112C50.984 8.44512 49.716 8.44912 48.94 9.23312C48.164 10.0171 48.168 11.2851 48.952 12.0611C53.496 16.5691 56 22.5851 56 29.0011C56 35.4171 53.496 41.4331 48.952 45.9411C48.168 46.7171 48.164 47.9851 48.94 48.7691C49.1254 48.9573 49.3465 49.1065 49.5904 49.2082C49.8342 49.3098 50.0958 49.3618 50.36 49.3611C50.868 49.3611 51.376 49.1691 51.768 48.7811C57.076 43.5171 60 36.4931 60 29.0011C60 21.5091 57.076 14.4851 51.768 9.22112Z" fill="currentColor"/>
</svg>
