<svg width="60" height="60" viewBox="0 0 60 60" fill="none" xmlns="http://www.w3.org/2000/svg">
<g clip-path="url(#clip0_15_5)">
<path d="M24.1481 48.2755C29.511 48.2757 34.7205 46.4863 38.9514 43.191L54.9134 59.1529C56.1058 60.3045 58.0058 60.2714 59.1574 59.079C60.2808 57.9159 60.2808 56.0719 59.1574 54.9088L43.1955 38.9469C51.3728 28.4206 49.4686 13.2583 38.9422 5.08104C28.4159 -3.09623 13.2537 -1.19203 5.07648 9.33433C-3.10079 19.8607 -1.19658 35.0229 9.32977 43.2002C13.5676 46.4924 18.7818 48.2782 24.1481 48.2755ZM11.3229 11.3182C18.4062 4.23483 29.8904 4.2347 36.9738 11.318C44.0572 18.4012 44.0573 29.8855 36.9741 36.9689C29.8908 44.0523 18.4065 44.0524 11.3232 36.9691L11.3229 36.9689C4.23963 29.9372 4.1979 18.4948 11.2295 11.4116L11.3229 11.3182Z" fill="currentColor"/>
</g>
<defs>
<clipPath id="clip0_15_5">
<rect width="60" height="60" fill=""/>
</clipPath>
</defs>
</svg>
