<svg width="71" height="61" viewBox="0 0 71 60" fill="none" xmlns="http://www.w3.org/2000/svg">
<path d="M66.7716 24.1947L9.48703 0.526834C7.07372 -0.470364 4.34729 -0.0316906 2.37191 1.67108C0.396522 3.37414 -0.429686 5.99817 0.215971 8.51905L4.35199 24.6692C4.91855 26.8815 6.91201 28.4288 9.19568 28.4288H30.2794C31.4281 28.4288 32.3596 29.3561 32.3596 30.5001C32.3596 31.6439 31.4283 32.5714 30.2794 32.5714H9.19567C6.91201 32.5714 4.91855 34.1187 4.35199 36.3309L0.215971 52.481C-0.429686 55.002 0.396383 57.626 2.37191 59.3289C4.35131 61.0352 7.07802 61.4684 9.48717 60.4732L66.7718 36.8054C69.3799 35.7278 71 33.3118 71 30.5001C71 27.6884 69.3799 25.2722 66.7716 24.1947Z" fill="currentColor"/>
</svg>
