<svg width="60" height="60" viewBox="0 0 60 60" fill="none" xmlns="http://www.w3.org/2000/svg">
<path d="M52.1053 0H7.89474C5.80169 0.00250714 3.79509 0.835077 2.31508 2.31508C0.835077 3.79509 0.00250714 5.80169 0 7.89474V52.1053C0.00250714 54.1983 0.835077 56.2049 2.31508 57.6849C3.79509 59.1649 5.80169 59.9975 7.89474 60H52.1053C54.1983 59.9975 56.2049 59.1649 57.6849 57.6849C59.1649 56.2049 59.9975 54.1983 60 52.1053V7.89474C59.9975 5.80169 59.1649 3.79509 57.6849 2.31508C56.2049 0.835077 54.1983 0.00250714 52.1053 0ZM37.8947 56.8421H7.89474C6.63896 56.8404 5.4351 56.3408 4.54713 55.4529C3.65916 54.5649 3.15957 53.361 3.15789 52.1053V7.89474C3.15957 6.63896 3.65916 5.4351 4.54713 4.54713C5.4351 3.65916 6.63896 3.15957 7.89474 3.15789H37.8947V56.8421ZM56.8421 52.1053C56.8404 53.361 56.3408 54.5649 55.4529 55.4529C54.5649 56.3408 53.361 56.8404 52.1053 56.8421H41.0526V3.15789H52.1053C53.361 3.15957 54.5649 3.65916 55.4529 4.54713C56.3408 5.4351 56.8404 6.63896 56.8421 7.89474V52.1053ZM53.6842 11.0526C53.6842 11.4714 53.5179 11.873 53.2218 12.1691C52.9256 12.4652 52.524 12.6316 52.1053 12.6316H45.7895C45.3707 12.6316 44.9691 12.4652 44.673 12.1691C44.3769 11.873 44.2105 11.4714 44.2105 11.0526C44.2105 10.6339 44.3769 10.2323 44.673 9.93615C44.9691 9.64004 45.3707 9.47368 45.7895 9.47368H52.1053C52.524 9.47368 52.9256 9.64004 53.2218 9.93615C53.5179 10.2323 53.6842 10.6339 53.6842 11.0526ZM53.6842 20.5263C53.6842 20.9451 53.5179 21.3467 53.2218 21.6428C52.9256 21.9389 52.524 22.1053 52.1053 22.1053H45.7895C45.3707 22.1053 44.9691 21.9389 44.673 21.6428C44.3769 21.3467 44.2105 20.9451 44.2105 20.5263C44.2105 20.1076 44.3769 19.7059 44.673 19.4098C44.9691 19.1137 45.3707 18.9474 45.7895 18.9474H52.1053C52.524 18.9474 52.9256 19.1137 53.2218 19.4098C53.5179 19.7059 53.6842 20.1076 53.6842 20.5263ZM53.6842 30C53.6842 30.4188 53.5179 30.8204 53.2218 31.1165C52.9256 31.4126 52.524 31.5789 52.1053 31.5789H45.7895C45.3707 31.5789 44.9691 31.4126 44.673 31.1165C44.3769 30.8204 44.2105 30.4188 44.2105 30C44.2105 29.5812 44.3769 29.1796 44.673 28.8835C44.9691 28.5874 45.3707 28.4211 45.7895 28.4211H52.1053C52.524 28.4211 52.9256 28.5874 53.2218 28.8835C53.5179 29.1796 53.6842 29.5812 53.6842 30Z" fill="currentColor"/>
</svg>
