<svg width="60" height="60" viewBox="0 0 60 60" fill="none" xmlns="http://www.w3.org/2000/svg">
<path d="M37.08 36.69C35.0746 38.3069 32.5761 39.1886 30 39.1886C27.4239 39.1886 24.9255 38.3069 22.92 36.69C22.3074 36.1808 21.5175 35.9358 20.7242 36.0089C19.931 36.0821 19.1992 36.4673 18.69 37.08C18.1808 37.6926 17.9358 38.4825 18.0089 39.2758C18.0821 40.069 18.4674 40.8008 19.08 41.31C22.144 43.8678 26.0087 45.2689 30 45.2689C33.9913 45.2689 37.856 43.8678 40.92 41.31C41.5327 40.8008 41.9179 40.069 41.9911 39.2758C42.0642 38.4825 41.8192 37.6926 41.31 37.08C41.0579 36.7766 40.7485 36.5259 40.3994 36.3421C40.0504 36.1584 39.6686 36.0451 39.2758 36.0089C38.4825 35.9358 37.6927 36.1808 37.08 36.69ZM21 27C21.5934 27 22.1734 26.824 22.6667 26.4944C23.1601 26.1648 23.5446 25.6962 23.7716 25.148C23.9987 24.5999 24.0581 23.9967 23.9424 23.4147C23.8266 22.8328 23.5409 22.2982 23.1213 21.8787C22.7018 21.4591 22.1672 21.1734 21.5853 21.0576C21.0033 20.9419 20.4001 21.0013 19.852 21.2284C19.3038 21.4554 18.8352 21.8399 18.5056 22.3333C18.176 22.8266 18 23.4067 18 24C18 24.7956 18.3161 25.5587 18.8787 26.1213C19.4413 26.6839 20.2044 27 21 27ZM39 21C38.4067 21 37.8266 21.1759 37.3333 21.5056C36.8399 21.8352 36.4554 22.3038 36.2284 22.8519C36.0013 23.4001 35.9419 24.0033 36.0577 24.5853C36.1734 25.1672 36.4591 25.7018 36.8787 26.1213C37.2982 26.5409 37.8328 26.8266 38.4147 26.9423C38.9967 27.0581 39.5999 26.9987 40.1481 26.7716C40.6962 26.5446 41.1648 26.1601 41.4944 25.6667C41.8241 25.1734 42 24.5933 42 24C42 23.2043 41.6839 22.4413 41.1213 21.8787C40.5587 21.3161 39.7957 21 39 21ZM30 0C24.0666 0 18.2664 1.75947 13.3329 5.05591C8.39943 8.35235 4.55426 13.0377 2.28363 18.5195C0.0129985 24.0013 -0.581101 30.0333 0.576455 35.8527C1.73401 41.6721 4.59123 47.0176 8.78681 51.2132C12.9824 55.4088 18.3279 58.266 24.1473 59.4235C29.9667 60.5811 35.9987 59.987 41.4805 57.7164C46.9623 55.4457 51.6476 51.6006 54.9441 46.6671C58.2405 41.7336 60 35.9334 60 30C60 26.0603 59.224 22.1593 57.7164 18.5195C56.2088 14.8797 53.999 11.5726 51.2132 8.78679C48.4274 6.00104 45.1203 3.79125 41.4805 2.28361C37.8407 0.775973 33.9397 0 30 0ZM30 54C25.2533 54 20.6131 52.5924 16.6663 49.9553C12.7195 47.3181 9.64341 43.5698 7.8269 39.1844C6.0104 34.799 5.53512 29.9734 6.46117 25.3178C7.38721 20.6623 9.67299 16.3859 13.0294 13.0294C16.3859 9.67297 20.6623 7.3872 25.3178 6.46115C29.9734 5.53511 34.799 6.01039 39.1844 7.82689C43.5698 9.64339 47.3181 12.7195 49.9553 16.6663C52.5924 20.6131 54 25.2532 54 30C54 36.3652 51.4714 42.4697 46.9706 46.9706C42.4697 51.4714 36.3652 54 30 54Z" fill="currentColor"/>
</svg>
