<svg width="60" height="60" viewBox="0 0 60 60" fill="none" xmlns="http://www.w3.org/2000/svg">
<g clip-path="url(#clip0_31_23)">
<path d="M44.077 28.3795L21.1202 14.7815C20.8575 14.6214 20.5564 14.5354 20.2487 14.5327C19.9411 14.53 19.6385 14.6108 19.3731 14.7664C19.1053 14.9242 18.8847 15.1507 18.734 15.4225C18.5834 15.6943 18.5082 16.0015 18.5163 16.3122V43.5098C18.5082 43.8206 18.5833 44.1279 18.734 44.3999C18.8847 44.6718 19.1054 44.8985 19.3732 45.0564C19.6343 45.2094 19.9315 45.2901 20.2341 45.2902C20.5501 45.2903 20.8601 45.2039 21.1307 45.0406L44.0834 31.4427C44.3491 31.2845 44.569 31.0599 44.7216 30.791C44.8741 30.5221 44.954 30.2181 44.9534 29.9089C44.9529 29.5997 44.8718 29.296 44.7183 29.0277C44.5647 28.7593 44.344 28.5356 44.0777 28.3784L44.077 28.3795ZM22.0772 40.3855V19.4364L39.7602 29.911L22.0772 40.3855Z" fill="currentColor"/>
<path d="M60 7.12166C60 3.18872 56.8113 0 52.8783 0H7.12166C3.18872 0 0 3.18872 0 7.12166V52.8783C0 56.8113 3.18872 60 7.12166 60H52.8783C56.8113 60 60 56.8113 60 52.8783V7.12166ZM56.4392 52.8783C56.4392 54.8452 54.8452 56.4392 52.8783 56.4392H7.12166C5.15484 56.4392 3.56083 54.8452 3.56083 52.8783V7.12166C3.56083 5.15484 5.15484 3.56083 7.12166 3.56083H52.8783C54.8452 3.56083 56.4392 5.15484 56.4392 7.12166V52.8783Z" fill="currentColor"/>
</g>
<defs>
<clipPath id="clip0_31_23">
<rect width="60" height="60" fill=""/>
</clipPath>
</defs>
</svg>
