<svg width="0" height="0"><symbol xmlns="http://www.w3.org/2000/svg" id="checked" fill="none" viewBox="0 0 52 52"><path fill="currentColor" fill-rule="evenodd" d="M5.777 26.007A20.222 20.222 0 0 1 32.664 6.908a2.89 2.89 0 0 0 1.9-5.457 26 26 0 1 0 17.276 21.67 2.888 2.888 0 1 0-5.743.635 20.22 20.22 0 0 1-27.046 21.23 20.219 20.219 0 0 1-13.274-18.98Zm42.61-15.421a2.89 2.89 0 0 0-4.333-3.825l-18.59 21.031-9.195-7.49a2.888 2.888 0 1 0-3.651 4.477l11.35 9.244a2.889 2.889 0 0 0 3.987-.326l20.433-23.111Z" clip-rule="evenodd"/></symbol><symbol xmlns="http://www.w3.org/2000/svg" id="clip" fill="none" viewBox="0 0 50 56"><path fill="currentColor" d="M43.587 4.752c3.83 3.413 6.127 8.228 6.391 13.39.264 5.161-1.528 10.248-4.983 14.145L27.15 52.343a13.625 13.625 0 0 1-9.268 4.55 13.213 13.213 0 0 1-9.665-3.3 13.213 13.213 0 0 1-4.402-9.217 13.624 13.624 0 0 1 3.44-9.734l16.738-18.81a8.069 8.069 0 0 1 2.463-2.035 7.976 7.976 0 0 1 3.05-.912 7.837 7.837 0 0 1 3.143.358 7.735 7.735 0 0 1 4.608 4.1c.446.964.691 2.012.72 3.08a7.98 7.98 0 0 1-.55 3.135 8.069 8.069 0 0 1-1.736 2.683L20.444 43.377c-.382.43-.918.693-1.488.73a2.123 2.123 0 0 1-1.553-.53 2.122 2.122 0 0 1-.708-1.48 2.189 2.189 0 0 1 .553-1.564l15.247-17.136c.354-.347.634-.762.823-1.22.188-.457.282-.947.274-1.44a3.559 3.559 0 0 0-.32-1.42 3.512 3.512 0 0 0-2.12-1.887 3.56 3.56 0 0 0-1.45-.153 3.663 3.663 0 0 0-2.514 1.399l-16.736 18.81a9.247 9.247 0 0 0-2.335 6.606 8.968 8.968 0 0 0 2.987 6.255 8.968 8.968 0 0 0 6.56 2.24 9.246 9.246 0 0 0 6.29-3.088l17.845-20.056a15.445 15.445 0 0 0 3.877-11.018A14.98 14.98 0 0 0 40.7 7.997c-5.882-5.233-14.167-4.186-20.15 2.539L4.622 28.437a2.19 2.19 0 0 1-1.49.731 2.123 2.123 0 0 1-1.552-.53 2.123 2.123 0 0 1-.707-1.48 2.189 2.189 0 0 1 .552-1.565L17.353 7.692c7.566-8.503 18.563-9.766 26.234-2.94Z"/></symbol><symbol xmlns="http://www.w3.org/2000/svg" id="dots" fill="none" viewBox="0 0 60 12"><path fill="currentColor" d="M6 12A6 6 0 1 0 6 0a6 6 0 0 0 0 12Zm24 0a6 6 0 1 0 0-12 6 6 0 0 0 0 12Zm24 0a6 6 0 1 0 0-12 6 6 0 0 0 0 12Z"/></symbol><symbol xmlns="http://www.w3.org/2000/svg" id="micro" fill="none" viewBox="0 0 60 60"><g fill="currentColor" clip-path="url(#a)"><path d="M30 41.538c3.173 0 5.89-1.13 8.149-3.389 2.259-2.259 3.389-4.976 3.389-8.15V11.54c0-3.173-1.13-5.89-3.39-8.15C35.89 1.13 33.174 0 30 0s-5.89 1.13-8.15 3.39c-2.259 2.26-3.389 4.976-3.389 8.149v18.46c0 3.174 1.13 5.891 3.39 8.15 2.26 2.259 4.976 3.389 8.149 3.389Z"/><path d="M50.083 23.762a2.213 2.213 0 0 0-1.622-.685c-.625 0-1.166.228-1.623.685-.456.457-.684.997-.684 1.622V30c0 4.447-1.581 8.251-4.743 11.412-3.16 3.161-6.964 4.742-11.411 4.742-4.448 0-8.252-1.58-11.413-4.742-3.16-3.16-4.741-6.965-4.741-11.412v-4.616c0-.625-.228-1.165-.685-1.622-.457-.457-.997-.685-1.622-.685-.626 0-1.167.228-1.623.685-.457.457-.686.997-.686 1.622V30c0 5.313 1.774 9.934 5.319 13.864 3.545 3.93 7.926 6.183 13.143 6.76v4.76h-9.23c-.626 0-1.166.229-1.623.685-.457.457-.685.998-.685 1.623 0 .624.228 1.166.685 1.623.457.456.997.685 1.622.685h23.077c.624 0 1.166-.229 1.622-.685.457-.457.686-.999.686-1.623 0-.625-.229-1.166-.686-1.623-.456-.456-.997-.685-1.622-.685h-9.23v-4.76c5.216-.577 9.596-2.83 13.142-6.76 3.546-3.93 5.32-8.551 5.32-13.864v-4.616c0-.624-.23-1.165-.687-1.622Z"/></g><defs><clipPath id="a"><path d="M0 0h60v60H0z"/></clipPath></defs></symbol><symbol xmlns="http://www.w3.org/2000/svg" id="pending" fill="none" viewBox="0 0 50 50"><path stroke="currentColor" stroke-width="5" d="M47.5 25c0 12.426-10.074 22.5-22.5 22.5S2.5 37.426 2.5 25 12.574 2.5 25 2.5 47.5 12.574 47.5 25Z"/><path stroke="currentColor" stroke-linecap="round" stroke-linejoin="round" stroke-width="5" d="M25 12.5v11.299c0 .75.375 1.451 1 1.867L32.5 30"/></symbol><symbol xmlns="http://www.w3.org/2000/svg" id="search" fill="none" viewBox="0 0 60 60"><g clip-path="url(#a)"><path fill="currentColor" d="M24.148 48.276a24.09 24.09 0 0 0 14.803-5.085l15.962 15.962a3.001 3.001 0 0 0 4.244-4.244L43.196 38.947c8.177-10.526 6.273-25.689-4.254-33.866C28.416-3.096 13.254-1.192 5.076 9.334-3.1 19.861-1.197 35.023 9.33 43.2a24.134 24.134 0 0 0 14.818 5.075ZM11.323 11.318c7.083-7.083 18.567-7.083 25.65 0 7.084 7.083 7.084 18.568.001 25.65-7.083 7.084-18.567 7.084-25.65.001h-.001c-7.083-7.032-7.125-18.474-.094-25.557l.094-.094Z"/></g></symbol><symbol xmlns="http://www.w3.org/2000/svg" id="send" fill="none" viewBox="0 0 71 60"><path fill="currentColor" d="M66.772 24.195 9.487.527A6.842 6.842 0 0 0 2.372 1.67 6.772 6.772 0 0 0 .216 8.52l4.136 16.15a5 5 0 0 0 4.844 3.76h21.083c1.15 0 2.08.927 2.08 2.071a2.076 2.076 0 0 1-2.08 2.071H9.196a5 5 0 0 0-4.844 3.76L.216 52.48a6.772 6.772 0 0 0 2.156 6.848 6.842 6.842 0 0 0 7.115 1.144l57.285-23.668C69.38 35.728 71 33.312 71 30.5s-1.62-5.228-4.228-6.305Z"/></symbol><symbol xmlns="http://www.w3.org/2000/svg" id="sent" fill="none" viewBox="0 0 360 258"><path fill="currentColor" fill-rule="evenodd" d="M316.037 8.085c10.087-9.887 26.271-9.76 36.203.283 9.901 10.074 9.799 26.256-.231 36.203L144.412 249.834a25.657 25.657 0 0 1-17.96 7.414h-.282a25.668 25.668 0 0 1-9.881-2.022 25.668 25.668 0 0 1-8.337-5.675L7.655 145.611l-.132-.136c-9.81-10.225-9.475-26.467.75-36.278s26.467-9.475 36.278.75l82.259 85.158L316.037 8.085Z" clip-rule="evenodd"/></symbol><symbol xmlns="http://www.w3.org/2000/svg" id="smile" fill="none" viewBox="0 0 60 60"><path fill="currentColor" d="M37.08 36.69a11.28 11.28 0 0 1-14.16 0 3.004 3.004 0 0 0-3.84 4.62 17.04 17.04 0 0 0 21.84 0 3.004 3.004 0 0 0-3.84-4.62ZM21 27a3 3 0 1 0 0-6 3 3 0 0 0 0 6Zm18-6a3 3 0 1 0 0 5.999A3 3 0 0 0 39 21ZM30 0a30 30 0 1 0 0 60 30 30 0 0 0 0-60Zm0 54a24 24 0 1 1 0-48.001A24 24 0 0 1 30 54Z"/></symbol></svg>