<svg width="0" height="0"><symbol xmlns="http://www.w3.org/2000/svg" id="checked" fill="none" viewBox="0 0 52 52"><path fill="currentColor" fill-rule="evenodd" d="M5.777 26.007A20.222 20.222 0 0 1 32.664 6.908a2.89 2.89 0 0 0 1.9-5.457 26 26 0 1 0 17.276 21.67 2.888 2.888 0 1 0-5.743.635 20.22 20.22 0 0 1-27.046 21.23 20.219 20.219 0 0 1-13.274-18.98Zm42.61-15.421a2.89 2.89 0 0 0-4.333-3.825l-18.59 21.031-9.195-7.49a2.888 2.888 0 1 0-3.651 4.477l11.35 9.244a2.889 2.889 0 0 0 3.987-.326l20.433-23.111Z" clip-rule="evenodd"/></symbol><symbol xmlns="http://www.w3.org/2000/svg" id="pending" fill="none" viewBox="0 0 50 50"><path stroke="currentColor" stroke-width="5" d="M47.5 25c0 12.426-10.074 22.5-22.5 22.5S2.5 37.426 2.5 25 12.574 2.5 25 2.5 47.5 12.574 47.5 25Z"/><path stroke="currentColor" stroke-linecap="round" stroke-linejoin="round" stroke-width="5" d="M25 12.5v11.299c0 .75.375 1.451 1 1.867L32.5 30"/></symbol><symbol xmlns="http://www.w3.org/2000/svg" id="sent" fill="none" viewBox="0 0 360 258"><path fill="currentColor" fill-rule="evenodd" d="M316.037 8.085c10.087-9.887 26.271-9.76 36.203.283 9.901 10.074 9.799 26.256-.231 36.203L144.412 249.834a25.657 25.657 0 0 1-17.96 7.414h-.282a25.668 25.668 0 0 1-9.881-2.022 25.668 25.668 0 0 1-8.337-5.675L7.655 145.611l-.132-.136c-9.81-10.225-9.475-26.467.75-36.278s26.467-9.475 36.278.75l82.259 85.158L316.037 8.085Z" clip-rule="evenodd"/></symbol></svg>