<svg width="0" height="0"><symbol xmlns="http://www.w3.org/2000/svg" id="checked" fill="none" viewBox="0 0 52 52"><path fill="currentColor" fill-rule="evenodd" d="M5.777 26.007A20.222 20.222 0 0 1 32.664 6.908a2.89 2.89 0 0 0 1.9-5.457 26 26 0 1 0 17.276 21.67 2.888 2.888 0 1 0-5.743.635 20.22 20.22 0 0 1-27.046 21.23 20.219 20.219 0 0 1-13.274-18.98Zm42.61-15.421a2.89 2.89 0 0 0-4.333-3.825l-18.59 21.031-9.195-7.49a2.888 2.888 0 1 0-3.651 4.477l11.35 9.244a2.889 2.889 0 0 0 3.987-.326l20.433-23.111Z" clip-rule="evenodd"/></symbol><symbol xmlns="http://www.w3.org/2000/svg" id="clip" fill="none" viewBox="0 0 50 56"><path fill="currentColor" d="M43.587 4.752c3.83 3.413 6.127 8.228 6.391 13.39.264 5.161-1.528 10.248-4.983 14.145L27.15 52.343a13.625 13.625 0 0 1-9.268 4.55 13.213 13.213 0 0 1-9.665-3.3 13.213 13.213 0 0 1-4.402-9.217 13.624 13.624 0 0 1 3.44-9.734l16.738-18.81a8.069 8.069 0 0 1 2.463-2.035 7.976 7.976 0 0 1 3.05-.912 7.837 7.837 0 0 1 3.143.358 7.735 7.735 0 0 1 4.608 4.1c.446.964.691 2.012.72 3.08a7.98 7.98 0 0 1-.55 3.135 8.069 8.069 0 0 1-1.736 2.683L20.444 43.377c-.382.43-.918.693-1.488.73a2.123 2.123 0 0 1-1.553-.53 2.122 2.122 0 0 1-.708-1.48 2.189 2.189 0 0 1 .553-1.564l15.247-17.136c.354-.347.634-.762.823-1.22.188-.457.282-.947.274-1.44a3.559 3.559 0 0 0-.32-1.42 3.512 3.512 0 0 0-2.12-1.887 3.56 3.56 0 0 0-1.45-.153 3.663 3.663 0 0 0-2.514 1.399l-16.736 18.81a9.247 9.247 0 0 0-2.335 6.606 8.968 8.968 0 0 0 2.987 6.255 8.968 8.968 0 0 0 6.56 2.24 9.246 9.246 0 0 0 6.29-3.088l17.845-20.056a15.445 15.445 0 0 0 3.877-11.018A14.98 14.98 0 0 0 40.7 7.997c-5.882-5.233-14.167-4.186-20.15 2.539L4.622 28.437a2.19 2.19 0 0 1-1.49.731 2.123 2.123 0 0 1-1.552-.53 2.123 2.123 0 0 1-.707-1.48 2.189 2.189 0 0 1 .552-1.565L17.353 7.692c7.566-8.503 18.563-9.766 26.234-2.94Z"/></symbol><symbol xmlns="http://www.w3.org/2000/svg" id="pending" fill="none" viewBox="0 0 50 50"><path stroke="currentColor" stroke-width="5" d="M47.5 25c0 12.426-10.074 22.5-22.5 22.5S2.5 37.426 2.5 25 12.574 2.5 25 2.5 47.5 12.574 47.5 25Z"/><path stroke="currentColor" stroke-linecap="round" stroke-linejoin="round" stroke-width="5" d="M25 12.5v11.299c0 .75.375 1.451 1 1.867L32.5 30"/></symbol><symbol xmlns="http://www.w3.org/2000/svg" id="sent" fill="none" viewBox="0 0 360 258"><path fill="currentColor" fill-rule="evenodd" d="M316.037 8.085c10.087-9.887 26.271-9.76 36.203.283 9.901 10.074 9.799 26.256-.231 36.203L144.412 249.834a25.657 25.657 0 0 1-17.96 7.414h-.282a25.668 25.668 0 0 1-9.881-2.022 25.668 25.668 0 0 1-8.337-5.675L7.655 145.611l-.132-.136c-9.81-10.225-9.475-26.467.75-36.278s26.467-9.475 36.278.75l82.259 85.158L316.037 8.085Z" clip-rule="evenodd"/></symbol></svg>