<svg width="0" height="0"><symbol xmlns="http://www.w3.org/2000/svg" id="checked" fill="none" viewBox="0 0 52 52"><path fill="currentColor" fill-rule="evenodd" d="M5.777 26.007A20.222 20.222 0 0 1 32.664 6.908a2.89 2.89 0 0 0 1.9-5.457 26 26 0 1 0 17.276 21.67 2.888 2.888 0 1 0-5.743.635 20.22 20.22 0 0 1-27.046 21.23 20.219 20.219 0 0 1-13.274-18.98Zm42.61-15.421a2.89 2.89 0 0 0-4.333-3.825l-18.59 21.031-9.195-7.49a2.888 2.888 0 1 0-3.651 4.477l11.35 9.244a2.889 2.889 0 0 0 3.987-.326l20.433-23.111Z" clip-rule="evenodd"/></symbol><symbol xmlns="http://www.w3.org/2000/svg" id="clip" fill="none" viewBox="0 0 50 56"><path fill="currentColor" d="M43.587 4.752c3.83 3.413 6.127 8.228 6.391 13.39.264 5.161-1.528 10.248-4.983 14.145L27.15 52.343a13.625 13.625 0 0 1-9.268 4.55 13.213 13.213 0 0 1-9.665-3.3 13.213 13.213 0 0 1-4.402-9.217 13.624 13.624 0 0 1 3.44-9.734l16.738-18.81a8.069 8.069 0 0 1 2.463-2.035 7.976 7.976 0 0 1 3.05-.912 7.837 7.837 0 0 1 3.143.358 7.735 7.735 0 0 1 4.608 4.1c.446.964.691 2.012.72 3.08a7.98 7.98 0 0 1-.55 3.135 8.069 8.069 0 0 1-1.736 2.683L20.444 43.377c-.382.43-.918.693-1.488.73a2.123 2.123 0 0 1-1.553-.53 2.122 2.122 0 0 1-.708-1.48 2.189 2.189 0 0 1 .553-1.564l15.247-17.136c.354-.347.634-.762.823-1.22.188-.457.282-.947.274-1.44a3.559 3.559 0 0 0-.32-1.42 3.512 3.512 0 0 0-2.12-1.887 3.56 3.56 0 0 0-1.45-.153 3.663 3.663 0 0 0-2.514 1.399l-16.736 18.81a9.247 9.247 0 0 0-2.335 6.606 8.968 8.968 0 0 0 2.987 6.255 8.968 8.968 0 0 0 6.56 2.24 9.246 9.246 0 0 0 6.29-3.088l17.845-20.056a15.445 15.445 0 0 0 3.877-11.018A14.98 14.98 0 0 0 40.7 7.997c-5.882-5.233-14.167-4.186-20.15 2.539L4.622 28.437a2.19 2.19 0 0 1-1.49.731 2.123 2.123 0 0 1-1.552-.53 2.123 2.123 0 0 1-.707-1.48 2.189 2.189 0 0 1 .552-1.565L17.353 7.692c7.566-8.503 18.563-9.766 26.234-2.94Z"/></symbol><symbol xmlns="http://www.w3.org/2000/svg" id="dots" fill="none" viewBox="0 0 60 12"><path fill="currentColor" d="M6 12A6 6 0 1 0 6 0a6 6 0 0 0 0 12Zm24 0a6 6 0 1 0 0-12 6 6 0 0 0 0 12Zm24 0a6 6 0 1 0 0-12 6 6 0 0 0 0 12Z"/></symbol><symbol xmlns="http://www.w3.org/2000/svg" id="file" fill="none" viewBox="0 0 74 59"><path fill="currentColor" d="M73.07 20.495a4.595 4.595 0 0 0-1.63-1.376 4.56 4.56 0 0 0-2.07-.487h-4.622v-4.658a6.24 6.24 0 0 0-1.808-4.39 6.152 6.152 0 0 0-4.358-1.82H35.069a3.053 3.053 0 0 1-2.393-1.15L29.655 2.87A7.685 7.685 0 0 0 26.988.752 7.63 7.63 0 0 0 23.675 0H6.166a6.152 6.152 0 0 0-4.358 1.821A6.24 6.24 0 0 0 0 6.211v45.912a6.91 6.91 0 0 0 2.002 4.86A6.811 6.811 0 0 0 6.828 59h51.895a6.833 6.833 0 0 0 4.094-1.382 6.914 6.914 0 0 0 2.464-3.57l8.53-29.454a4.65 4.65 0 0 0-.741-4.1Zm-66.244 35.4a3.734 3.734 0 0 1-2.646-1.106 3.788 3.788 0 0 1-1.097-2.666V6.211a3.12 3.12 0 0 1 .904-2.195 3.075 3.075 0 0 1 2.18-.91h17.505a4.576 4.576 0 0 1 1.99.45 4.608 4.608 0 0 1 1.602 1.271l3.018 3.747a6.15 6.15 0 0 0 2.135 1.694 6.107 6.107 0 0 0 2.652.6H58.58a3.081 3.081 0 0 1 2.18.91 3.12 3.12 0 0 1 .904 2.196v4.658H25.548a6.833 6.833 0 0 0-4.092 1.383 6.915 6.915 0 0 0-2.463 3.57L10.42 53.178a3.791 3.791 0 0 1-1.35 1.957 3.752 3.752 0 0 1-2.245.759Zm64.024-32.17-8.53 29.452a3.793 3.793 0 0 1-1.352 1.959 3.748 3.748 0 0 1-2.247.758H12.533c.374-.57.66-1.192.85-1.846l8.571-29.595a3.794 3.794 0 0 1 1.35-1.957 3.749 3.749 0 0 1 2.244-.76h43.825a1.532 1.532 0 0 1 1.233.62 1.558 1.558 0 0 1 .247 1.367h-.003Z"/></symbol><symbol xmlns="http://www.w3.org/2000/svg" id="image" fill="none" viewBox="0 0 60 60"><path fill="currentColor" d="M51.13 0H8.87C3.978 0 0 3.979 0 8.87v42.26C0 56.022 3.979 60 8.87 60h42.26c4.891 0 8.87-3.979 8.87-8.87V8.87C60 3.978 56.021 0 51.13 0ZM8.87 3.75h42.26a5.125 5.125 0 0 1 5.12 5.12v24.786l-7.557-6.88c-1.096-.998-2.45-1.564-3.81-1.594-1.487-.034-2.887.573-3.936 1.706L26.642 42.335c-.806.87-1.115.991-1.17 1.007-.062-.006-.348-.067-1.21-.667l-8.537-6.777c-1.733-1.515-4.47-1.538-6.396-.044L3.75 40.179V8.869A5.125 5.125 0 0 1 8.87 3.75Zm42.26 52.5H8.87a5.125 5.125 0 0 1-5.12-5.12v-6.206l7.876-6.107c.498-.386 1.264-.427 1.64-.088.028.026.058.05.088.075l8.621 6.843c.03.023.059.045.09.066 1.176.826 2.221 1.38 3.4 1.38.125 0 .25-.006.374-.018 1.474-.145 2.58-1.14 3.554-2.192L43.7 29.436c1.021-1.104 2.236-.1 2.47.112l10.081 9.18V51.13a5.125 5.125 0 0 1-5.12 5.119ZM20.657 24.258c4.128 0 7.485-3.358 7.485-7.486 0-4.127-3.357-7.485-7.485-7.485-4.127 0-7.485 3.358-7.485 7.485 0 4.128 3.358 7.486 7.485 7.486Zm0-11.22a3.74 3.74 0 0 1 3.735 3.734 3.74 3.74 0 0 1-3.735 3.736 3.74 3.74 0 0 1-3.735-3.736 3.74 3.74 0 0 1 3.735-3.735Z"/></symbol><symbol xmlns="http://www.w3.org/2000/svg" id="micro" fill="none" viewBox="0 0 42 60"><path stroke="currentColor" stroke-width="5" d="M30.538 30c0 2.639-.917 4.848-2.803 6.734-1.888 1.887-4.096 2.803-6.735 2.803-2.639 0-4.848-.916-6.735-2.802-1.887-1.887-2.804-4.096-2.804-6.735V11.539c0-2.639.916-4.848 2.804-6.735C16.153 2.917 18.362 2 21 2s4.847.917 6.735 2.804c1.887 1.887 2.803 4.096 2.803 6.735v18.46Z"/><path fill="currentColor" d="M41.083 23.762a2.213 2.213 0 0 0-1.622-.685c-.625 0-1.166.228-1.623.685-.456.457-.684.997-.684 1.622V30c0 4.447-1.581 8.251-4.742 11.412-3.16 3.161-6.965 4.742-11.412 4.742-4.448 0-8.252-1.58-11.413-4.742-3.16-3.16-4.74-6.965-4.74-11.412v-4.616c-.001-.625-.23-1.165-.686-1.622-.457-.457-.997-.685-1.622-.685-.626 0-1.167.228-1.623.685-.457.457-.686.997-.686 1.622V30c0 5.313 1.774 9.934 5.319 13.864 3.545 3.93 7.926 6.183 13.143 6.76v4.76h-9.23c-.626 0-1.167.229-1.623.685-.457.457-.685.998-.685 1.623 0 .624.228 1.166.685 1.623.456.456.997.685 1.622.685h23.076c.625 0 1.167-.229 1.623-.685.457-.457.686-.999.686-1.623 0-.625-.229-1.166-.686-1.623-.456-.456-.997-.685-1.622-.685h-9.23v-4.76c5.216-.577 9.596-2.83 13.142-6.76 3.546-3.93 5.32-8.551 5.32-13.864v-4.616c0-.624-.23-1.165-.687-1.622Z"/></symbol><symbol xmlns="http://www.w3.org/2000/svg" id="music" fill="none" viewBox="0 0 60 58"><path fill="currentColor" d="M34.868 1.197a1.994 1.994 0 0 0-2.116.24L13.296 17.001H4c-2.204 0-4 1.796-4 4v16c0 2.204 1.796 4 4 4h9.296l19.452 15.564a2.02 2.02 0 0 0 2.12.24A2.006 2.006 0 0 0 36 55.001v-52a2.006 2.006 0 0 0-1.132-1.804ZM12 37.001H4v-16h8v16Zm20 13.836-16-12.8V19.965l16-12.8v43.672Zm14.128-35.98a1.998 1.998 0 0 0-2.828.016 2.001 2.001 0 0 0 .016 2.828c3.02 2.988 4.684 7 4.684 11.3 0 4.3-1.664 8.312-4.684 11.3a1.994 1.994 0 0 0 .635 3.267 1.993 1.993 0 0 0 2.177-.427c3.788-3.74 5.872-8.76 5.872-14.14 0-5.38-2.084-10.4-5.872-14.144Z"/><path fill="currentColor" d="M51.768 9.221a2.001 2.001 0 0 0-2.828.012 2.001 2.001 0 0 0 .012 2.828C53.496 16.57 56 22.585 56 29.001c0 6.416-2.504 12.432-7.048 16.94a2.001 2.001 0 0 0 1.408 3.42c.508 0 1.016-.192 1.408-.58C57.076 43.517 60 36.493 60 29.001c0-7.492-2.924-14.516-8.232-19.78Z"/></symbol><symbol xmlns="http://www.w3.org/2000/svg" id="pending" fill="none" viewBox="0 0 50 50"><path stroke="currentColor" stroke-width="5" d="M47.5 25c0 12.426-10.074 22.5-22.5 22.5S2.5 37.426 2.5 25 12.574 2.5 25 2.5 47.5 12.574 47.5 25Z"/><path stroke="currentColor" stroke-linecap="round" stroke-linejoin="round" stroke-width="5" d="M25 12.5v11.299c0 .75.375 1.451 1 1.867L32.5 30"/></symbol><symbol xmlns="http://www.w3.org/2000/svg" id="search" fill="none" viewBox="0 0 60 60"><g clip-path="url(#a)"><path fill="currentColor" d="M24.148 48.276a24.09 24.09 0 0 0 14.803-5.085l15.962 15.962a3.001 3.001 0 0 0 4.244-4.244L43.196 38.947c8.177-10.526 6.273-25.689-4.254-33.866C28.416-3.096 13.254-1.192 5.076 9.334-3.1 19.861-1.197 35.023 9.33 43.2a24.134 24.134 0 0 0 14.818 5.075ZM11.323 11.318c7.083-7.083 18.567-7.083 25.65 0 7.084 7.083 7.084 18.568.001 25.65-7.083 7.084-18.567 7.084-25.65.001h-.001c-7.083-7.032-7.125-18.474-.094-25.557l.094-.094Z"/></g><defs><clipPath id="a"><path d="M0 0h60v60H0z"/></clipPath></defs></symbol><symbol xmlns="http://www.w3.org/2000/svg" id="send" fill="none" viewBox="0 0 71 60"><path fill="currentColor" d="M66.772 24.195 9.487.527A6.842 6.842 0 0 0 2.372 1.67 6.772 6.772 0 0 0 .216 8.52l4.136 16.15a5 5 0 0 0 4.844 3.76h21.083c1.15 0 2.08.927 2.08 2.071a2.076 2.076 0 0 1-2.08 2.071H9.196a5 5 0 0 0-4.844 3.76L.216 52.48a6.772 6.772 0 0 0 2.156 6.848 6.842 6.842 0 0 0 7.115 1.144l57.285-23.668C69.38 35.728 71 33.312 71 30.5s-1.62-5.228-4.228-6.305Z"/></symbol><symbol xmlns="http://www.w3.org/2000/svg" id="sent" fill="none" viewBox="0 0 360 258"><path fill="currentColor" fill-rule="evenodd" d="M316.037 8.085c10.087-9.887 26.271-9.76 36.203.283 9.901 10.074 9.799 26.256-.231 36.203L144.412 249.834a25.657 25.657 0 0 1-17.96 7.414h-.282a25.668 25.668 0 0 1-9.881-2.022 25.668 25.668 0 0 1-8.337-5.675L7.655 145.611l-.132-.136c-9.81-10.225-9.475-26.467.75-36.278s26.467-9.475 36.278.75l82.259 85.158L316.037 8.085Z" clip-rule="evenodd"/></symbol><symbol xmlns="http://www.w3.org/2000/svg" id="sidebar" fill="none" viewBox="0 0 60 60"><path fill="currentColor" d="M52.105 0H7.895A7.904 7.904 0 0 0 0 7.895v44.21A7.904 7.904 0 0 0 7.895 60h44.21A7.904 7.904 0 0 0 60 52.105V7.895A7.904 7.904 0 0 0 52.105 0Zm-14.21 56.842h-30a4.744 4.744 0 0 1-4.737-4.737V7.895a4.743 4.743 0 0 1 4.737-4.737h30v53.684Zm18.947-4.737a4.744 4.744 0 0 1-4.737 4.737H41.053V3.158h11.052a4.743 4.743 0 0 1 4.737 4.737v44.21Zm-3.158-41.052a1.579 1.579 0 0 1-1.579 1.579H45.79a1.579 1.579 0 0 1 0-3.158h6.316a1.58 1.58 0 0 1 1.58 1.579Zm0 9.473a1.579 1.579 0 0 1-1.579 1.58H45.79a1.579 1.579 0 0 1 0-3.159h6.316a1.58 1.58 0 0 1 1.58 1.58Zm0 9.474a1.579 1.579 0 0 1-1.579 1.579H45.79a1.579 1.579 0 1 1 0-3.158h6.316A1.58 1.58 0 0 1 53.685 30Z"/></symbol><symbol xmlns="http://www.w3.org/2000/svg" id="smile" fill="none" viewBox="0 0 60 60"><path fill="currentColor" d="M37.08 36.69a11.28 11.28 0 0 1-14.16 0 3.004 3.004 0 0 0-3.84 4.62 17.04 17.04 0 0 0 21.84 0 3.004 3.004 0 0 0-3.84-4.62ZM21 27a3 3 0 1 0 0-6 3 3 0 0 0 0 6Zm18-6a3 3 0 1 0 0 5.999A3 3 0 0 0 39 21ZM30 0a30 30 0 1 0 0 60 30 30 0 0 0 0-60Zm0 54a24 24 0 1 1 0-48.001A24 24 0 0 1 30 54Z"/></symbol><symbol xmlns="http://www.w3.org/2000/svg" id="video" fill="none" viewBox="0 0 60 60"><g fill="currentColor" clip-path="url(#a)"><path d="M44.077 28.38 21.12 14.781a1.703 1.703 0 0 0-1.747-.016 1.742 1.742 0 0 0-.857 1.546V43.51a1.743 1.743 0 0 0 .857 1.546c.261.153.558.234.861.234.316 0 .626-.086.897-.25l22.952-13.597a1.782 1.782 0 0 0-.005-3.065l-.001.002Zm-22 12.006v-20.95L39.76 29.911 22.077 40.385Z"/><path d="M60 7.122A7.122 7.122 0 0 0 52.878 0H7.122A7.122 7.122 0 0 0 0 7.122v45.756A7.122 7.122 0 0 0 7.122 60h45.756A7.122 7.122 0 0 0 60 52.878V7.122Zm-3.56 45.756a3.56 3.56 0 0 1-3.562 3.561H7.122a3.56 3.56 0 0 1-3.561-3.56V7.121A3.56 3.56 0 0 1 7.12 3.56h45.757a3.56 3.56 0 0 1 3.561 3.56v45.757Z"/></g></symbol></svg>