<svg width="0" height="0"><symbol xmlns="http://www.w3.org/2000/svg" xml:space="preserve" id="google" viewBox="0 0 210 210"><g><path d="M0 105C0 47.103 47.103 0 105 0c23.383 0 45.515 7.523 64.004 21.756l-24.4 31.696C133.172 44.652 119.477 40 105 40c-35.841 0-65 29.159-65 65s29.159 65 65 65c28.867 0 53.398-18.913 61.852-45H105V85h105v20c0 57.897-47.103 105-105 105S0 162.897 0 105z" data-original="#000000"/></g></symbol><symbol xmlns="http://www.w3.org/2000/svg" id="vkontakte" fill="none" viewBox="0 0 20 12"><path fill="#fff" d="M18.128 1.53a.933.933 0 0 0 .047-.311c-.012-.272-.198-.469-.638-.469h-1.963c-.496 0-.725.3-.858.6 0 0-1.224 2.52-2.635 4.181-.457.481-.69.469-.938.469-.132 0-.468-.16-.468-.6V1.51c0-.52-.13-.76-.549-.76H6.64c-.305 0-.464.24-.464.48 0 .501.673.621.75 2.023V5.97c0 .66-.115.78-.363.78-.667 0-1.981-2.25-2.861-5.199-.19-.58-.381-.801-.877-.801H.843c-.572 0-.667.28-.667.58 0 .541.45 3.465 2.906 6.826C4.863 10.594 7.21 12 9.287 12c1.259 0 1.388-.32 1.388-.82V8.95c0-.6.138-.7.538-.7.286 0 .869.188 1.994 1.5C14.504 11.264 14.74 12 15.484 12h1.963c.456 0 .718-.191.729-.563.002-.094-.012-.2-.042-.317-.146-.432-.814-1.488-1.646-2.495-.461-.557-.916-1.11-1.126-1.41-.14-.195-.193-.333-.187-.465.007-.139.08-.27.187-.455-.02 0 2.519-3.563 2.766-4.764Z"/></symbol></svg>