<svg width="19" height="12" viewBox="0 0 20 12" fill="none" xmlns="http://www.w3.org/2000/svg">
<path d="M18.1283 1.53078C18.1628 1.41753 18.1793 1.31253 18.1748 1.21878C18.1635 0.947281 17.9768 0.750031 17.5373 0.750031H15.5738C15.078 0.750031 14.8493 1.05003 14.7158 1.35078C14.7158 1.35078 13.4918 3.87003 12.081 5.53128C11.6235 6.01203 11.391 6.00003 11.1435 6.00003C11.0108 6.00003 10.6755 5.83953 10.6755 5.39928V1.51053C10.6755 0.99003 10.5458 0.750031 10.1265 0.750031H6.63976C6.33451 0.750031 6.17551 0.990031 6.17551 1.23078C6.17551 1.73103 6.84901 1.85103 6.92551 3.25278V5.97003C6.92551 6.63003 6.81076 6.75003 6.56326 6.75003C5.89576 6.75003 4.58176 4.50003 3.70201 1.55103C3.51151 0.970531 3.32101 0.750031 2.82526 0.750031H0.843007C0.270757 0.750031 0.175507 1.03053 0.175507 1.33053C0.175507 1.87128 0.625506 4.79478 3.08176 8.15628C4.86301 10.5938 7.20976 12 9.28726 12C10.5458 12 10.6748 11.6798 10.6748 11.1795V8.95053C10.6755 8.34978 10.8128 8.25003 11.2133 8.25003C11.499 8.25003 12.0818 8.43753 13.2068 9.75003C14.5043 11.2635 14.7398 12 15.4838 12H17.4473C17.9033 12 18.165 11.8088 18.1755 11.4375C18.1778 11.343 18.1643 11.2373 18.1335 11.1195C17.988 10.6875 17.3205 9.63153 16.488 8.62503C16.0268 8.06778 15.5715 7.51578 15.3623 7.21578C15.222 7.02003 15.1688 6.88203 15.1755 6.75003C15.1823 6.61128 15.2543 6.47928 15.3623 6.29478C15.3428 6.29478 17.8808 2.73153 18.1283 1.53078Z" fill="currentColor"/>
</svg>
